<svg xmlns="http://www.w3.org/2000/svg" width="256" height="256"><path fill-opacity=".016" d="M0 128.004v128.004l128.25-.254 128.25-.254.254-127.75L257.008 0H0v128.004m.485.496c0 70.4.119 99.053.265 63.672.146-35.38.146-92.98 0-128C.604 29.153.485 58.1.485 128.5" fill="#1976D2" fill-rule="evenodd"/><path fill-opacity=".107" d="M122.795 17.75c-1.63 1.883-6.509 10.191-16.59 28.25-3.677 6.588-37.091 64.238-38.253 66-.544.825-1.549 2.625-2.233 4-.683 1.375-2.475 4.404-3.981 6.73-1.506 2.327-2.738 4.455-2.738 4.729 0 .444-40.641 70.839-43.035 74.541-.533.825-1.399 2.491-1.924 3.701-.525 1.211-2.197 4.136-3.716 6.5-1.519 2.365-3.843 6.324-5.165 8.799-1.322 2.475-3.024 5.21-3.782 6.079-2.223 2.547-1.694 7.696 1.077 10.466L4.909 240h123.435c116.34 0 123.559-.101 125.608-1.76 2.873-2.326 4.007-9.791 1.752-11.53-.864-.665-2.639-3.235-3.945-5.71s-3.606-6.434-5.11-8.799c-1.505-2.364-3.165-5.289-3.69-6.5-.525-1.21-1.393-2.876-1.93-3.701-2.019-3.106-38.813-66.797-42.46-73.5-2.095-3.85-4.343-7.675-4.996-8.5-.652-.825-1.72-2.625-2.372-4-.653-1.375-1.627-3.175-2.164-4-1.197-1.836-34.743-59.73-38.242-66-10.081-18.059-14.96-26.367-16.59-28.25-2.058-2.377-9.352-2.377-11.41 0m-5.032 41.542C111.928 69.307 106.156 79.3 104.936 81.5c-1.22 2.2-3.338 6.025-4.707 8.5-1.369 2.475-3.105 5.21-3.859 6.079-.753.868-1.37 1.874-1.37 2.236 0 .361-7.2 13.058-16 28.216-8.8 15.158-16 27.951-16 28.431 0 .479-.375 1.021-.832 1.205-.458.183-2.258 2.921-4 6.083-7.242 13.144-9.593 17.255-22.018 38.5-7.158 12.238-12.82 22.252-12.582 22.255.238.002 47.457.004 104.932.004s104.691-.002 104.925-.004c.233-.003-5.373-9.914-12.458-22.024-12.226-20.895-14.658-25.151-22.132-38.731-1.74-3.162-3.428-5.975-3.75-6.25-.322-.275-1.308-1.85-2.192-3.5-.884-1.65-8.197-14.341-16.25-28.201C168.589 110.438 162 98.773 162 98.377c0-.396-.617-1.43-1.37-2.298-.754-.869-2.554-3.717-4-6.329a4504.312 4504.312 0 0 0-5.279-9.5c-4.025-7.217-20.516-35.518-21.826-37.458-.983-1.454-2.727.992-11.762 16.5M.252 231.5c.011 2.2.216 2.982.455 1.738.239-1.244.23-3.044-.02-4s-.446.062-.435 2.262" fill="#1976D2" fill-rule="evenodd"/><path fill-opacity=".442" d="M123.328 18.25c-1.111 1.238-7.186 11.25-13.499 22.25C91.404 72.605 57.409 131.527 33.96 172c-11.949 20.625-22.615 39.075-23.702 41a467.343 467.343 0 0 1-4.661 8c-1.476 2.475-2.943 5.287-3.258 6.25-.315.962-.97 1.75-1.456 1.75-1.972 0-.697 4.988 2.018 7.894L5.802 240h122.165c81.875 0 122.799-.34 124.088-1.03 2.332-1.247 4.945-6.05 4.945-9.087 0-1.219-.293-1.923-.652-1.565-.358.359-1.187-.354-1.843-1.583-.655-1.229-2.162-3.922-3.348-5.985a1390.549 1390.549 0 0 1-4.277-7.5c-1.165-2.062-11.897-20.625-23.849-41.25-30.753-53.073-64.996-112.409-77.043-133.5C134.04 17.581 132.81 16 128.5 16c-2.003 0-3.888.82-5.172 2.25M120 54.172c-4.125 7.221-8.785 15.424-10.356 18.229-1.57 2.804-12.884 22.424-25.142 43.599a778737.49 778737.49 0 0 0-41.895 72.384C31.823 207.02 23 222.657 23 223.134c0 .483 46.7.866 105.5.866 68.594 0 105.5-.345 105.5-.985 0-.542-1.292-3.129-2.87-5.75-4.58-7.604-34.475-59.168-38.128-65.765-1.827-3.3-12.204-21.3-23.06-40-10.856-18.7-21.021-36.295-22.59-39.099-11.421-20.421-17.996-31.357-18.852-31.357-.55 0-4.375 5.908-8.5 13.128M.195 231.5c.02 1.65.244 2.204.498 1.231.254-.973.237-2.323-.037-3-.274-.677-.481.119-.461 1.769" fill="#1976D2" fill-rule="evenodd"/><path fill-opacity=".984" d="M126 17c0 .55-.562 1.009-1.25 1.019-.687.011-6.608 9.348-13.158 20.75A29214.353 29214.353 0 0 1 77.995 97c-11.93 20.625-25.426 44.025-29.991 52-4.566 7.975-16.005 27.775-25.42 44-9.415 16.225-18.011 31.3-19.101 33.5-1.091 2.2-2.304 4.145-2.697 4.321-.758.341.786 3.523 3.119 6.429C5.229 238.9 12.378 239 128.5 239c116.1 0 123.274-.101 124.652-1.75 1.51-1.808 4.566-8.286 3.331-7.061-.382.379-2.187-2.173-4.01-5.672-1.824-3.499-10.486-18.659-19.25-33.689-8.763-15.03-19.667-33.853-24.23-41.828-4.564-7.975-18.058-31.375-29.988-52a29214.353 29214.353 0 0 1-33.597-58.231c-6.55-11.402-12.47-20.739-13.158-20.75-.687-.01-1.25-.469-1.25-1.019 0-.55-1.125-1-2.5-1s-2.5.45-2.5 1m-4.449 33.263c-3.272 5.63-6.919 12.037-8.105 14.237-1.187 2.2-11.311 19.75-22.498 39-11.188 19.25-22.871 39.5-25.961 45-3.091 5.5-14.028 24.441-24.304 42.092C30.407 208.243 22 223.205 22 223.842c0 .87 26.48 1.158 106.5 1.158 78.737 0 106.5-.296 106.5-1.134 0-.624-8.408-15.587-18.684-33.25C206.04 172.952 195.103 154 192.013 148.5c-3.091-5.5-14.773-25.75-25.961-45-11.187-19.25-21.311-36.8-22.498-39-6.242-11.577-14.175-24.475-15.054-24.475-.55 0-3.677 4.607-6.949 10.238" fill="#1976D2" fill-rule="evenodd"/></svg>